<?xml version="1.0" encoding="UTF-8" standalone="no"?>
<svg
   version="1.2"
   width="57.250671mm"
   height="12.868698mm"
   viewBox="0 0 32.578794 7.3229998"
   id="svg34"
   sodipodi:docname="index.html-20241107_203042_568268-1.svg"
   xmlns:inkscape="http://www.inkscape.org/namespaces/inkscape"
   xmlns:sodipodi="http://sodipodi.sourceforge.net/DTD/sodipodi-0.dtd"
   xmlns:xlink="http://www.w3.org/1999/xlink"
   xmlns="http://www.w3.org/2000/svg"
   xmlns:svg="http://www.w3.org/2000/svg">
  <defs
     id="defs34" />
  <sodipodi:namedview
     id="namedview34"
     pagecolor="#ffffff"
     bordercolor="#000000"
     borderopacity="0.25"
     inkscape:showpageshadow="2"
     inkscape:pageopacity="0.0"
     inkscape:pagecheckerboard="0"
     inkscape:deskcolor="#d1d1d1"
     inkscape:document-units="mm" />
  <style
     type="text/css"
     id="style1"><![CDATA[
tspan { white-space: pre; }
]]></style>
  <g
     transform="translate(-1.1690062,6.779)"
     id="g1">
    <rect
       x="16.9098"
       y="-0.1"
       width="1.9563"
       height="0.2"
       ry="0.1"
       fill="currentColor"
       id="rect1" />
  </g>
  <g
     transform="translate(7.3667938,5.779)"
     id="g2">
    <line
       stroke-linejoin="round"
       stroke-linecap="round"
       stroke-width="0.1"
       stroke="currentColor"
       x1="0.050000001"
       y1="0"
       x2="25.162001"
       y2="0"
       id="line1" />
  </g>
  <g
     transform="translate(7.3667938,4.779)"
     id="g3">
    <line
       stroke-linejoin="round"
       stroke-linecap="round"
       stroke-width="0.1"
       stroke="currentColor"
       x1="0.050000001"
       y1="0"
       x2="25.162001"
       y2="0"
       id="line2" />
  </g>
  <g
     transform="translate(7.3667938,3.779)"
     id="g4">
    <line
       stroke-linejoin="round"
       stroke-linecap="round"
       stroke-width="0.1"
       stroke="currentColor"
       x1="0.050000001"
       y1="0"
       x2="25.162001"
       y2="0"
       id="line3" />
  </g>
  <g
     transform="translate(7.3667938,2.779)"
     id="g5">
    <line
       stroke-linejoin="round"
       stroke-linecap="round"
       stroke-width="0.1"
       stroke="currentColor"
       x1="0.050000001"
       y1="0"
       x2="25.162001"
       y2="0"
       id="line4" />
  </g>
  <g
     transform="translate(7.3667938,1.779)"
     id="g6">
    <line
       stroke-linejoin="round"
       stroke-linecap="round"
       stroke-width="0.1"
       stroke="currentColor"
       x1="0.050000001"
       y1="0"
       x2="25.162001"
       y2="0"
       id="line5" />
  </g>
  <g
     transform="translate(32.388794,3.779)"
     id="g7">
    <rect
       x="0"
       y="-2"
       width="0.19"
       height="4"
       ry="0.0000"
       fill="currentColor"
       id="rect6" />
  </g>
  <a
     style="color:inherit"
     xlink:href="textedit:///Users/master/Documents/GitHub/francescovitucci_dev/temp.ly:9:24:25"
     id="a8"
     transform="translate(-6.8596062,-3.8453)">
    <g
       transform="translate(31.509,4.8143)"
       id="g8">
      <polygon
         stroke-linejoin="round"
         stroke-linecap="round"
         stroke-width="0.08"
         fill="currentColor"
         stroke="currentColor"
         points="0.04,0.2 0.04,-0.2 2.5942,-0.39 2.5942,0.01 "
         id="polygon7" />
    </g>
  </a>
  <a
     style="color:inherit"
     xlink:href="textedit:///Users/master/Documents/GitHub/francescovitucci_dev/temp.ly:9:8:9"
     id="a9"
     transform="translate(-6.8596062,-3.8453)">
    <g
       transform="translate(22.9264,10.6243)"
       id="g9">
      <path
         transform="scale(0.004,-0.004)"
         d="m 218,136 c 66,0 108,-36 108,-89 0,-89 -113,-183 -218,-183 -66,0 -108,36 -108,89 0,89 113,183 218,183 z"
         fill="currentColor"
         id="path8" />
    </g>
  </a>
  <g
     transform="translate(8.1667938,4.779)"
     id="g10">
    <path
       transform="scale(0.004,-0.004)"
       d="m 266,-635 h -6 c -108,0 -195,88 -195,197 0,58 53,103 112,103 54,0 95,-47 95,-103 0,-52 -43,-95 -95,-95 -11,0 -21,2 -31,6 26,-39 68,-65 117,-65 h 4 z m 195,432 c 68,24 113,90 113,164 0,90 -66,179 -173,190 19,-89 48,-242 60,-354 z M 74,28 c 0,-145 141,-247 264,-247 1,0 47,0 82,6 -7,64 -29,203 -63,364 -79,-8 -124,-61 -124,-119 0,-44 25,-91 81,-123 5,-5 7,-10 7,-15 0,-11 -10,-22 -22,-22 -15,0 -126,62 -126,187 0,88 58,174 160,197 -14,58 -29,117 -46,175 C 180,310 74,188 74,28 Z m 176,525 c -29,96 -52,170 -52,346 0,115 55,224 149,292 6,5 14,5 20,0 68,-80 133,-245 133,-358 0,-143 -86,-255 -180,-364 21,-68 39,-138 56,-207 2,0 7,1 13,1 155,0 256,-128 256,-261 0,-113 -74,-212 -180,-246 3,-35 5,-70 5,-105 0,-19 -1,-39 -2,-58 -7,-119 -88,-225 -202,-228 l 1,43 c 93,2 153,92 159,191 1,18 2,37 2,55 0,31 -1,61 -4,92 -5,-1 -44,-8 -89,-8 C 142,-262 2,-82 2,112 2,289 133,418 250,553 Z m 178,363 c 0,34 1,66 -20,129 -99,-48 -162,-149 -162,-259 0,-52 12,-115 36,-194 80,97 146,198 146,324 z"
       fill="currentColor"
       id="path9" />
  </g>
  <g
     transform="translate(12.366794,3.779)"
     id="g11">
    <path
       transform="scale(0.004,-0.004)"
       d="m 250,262 c 116,0 176,-106 176,-163 0,-40 -30,-72 -67,-72 -31,0 -75,25 -75,75 0,38 27,77 72,77 4,0 9,0 14,-1 -28,37 -72,59 -120,59 C 144,237 137,164 137,51 V 0 -51 c 0,-113 7,-187 113,-187 80,0 139,70 158,151 2,7 7,10 12,10 6,0 13,-4 13,-12 0,-22 -50,-174 -183,-174 C 191,-263 0,-244 0,0 0,62 18,262 250,262 Z"
       fill="currentColor"
       id="path10" />
  </g>
  <g
     transform="translate(17.305994,3.779)"
     id="g12">
    <rect
       x="-0.064999998"
       y="-0.625"
       width="0.13"
       height="3.4389"
       ry="0.039999999"
       fill="currentColor"
       id="rect11" />
  </g>
  <a
     style="color:inherit"
     xlink:href="textedit:///Users/master/Documents/GitHub/francescovitucci_dev/temp.ly:9:10:11"
     id="a15"
     transform="translate(-6.8596062,-3.8453)">
    <g
       transform="translate(23.4156,9.6168)"
       id="g13">
      <polygon
         stroke-linejoin="round"
         stroke-linecap="round"
         stroke-width="0.08"
         fill="currentColor"
         stroke="currentColor"
         points="0.04,0.2 0.04,-0.2 1.46,-0.575 1.46,-0.175 "
         id="polygon12" />
    </g>
    <g
       transform="translate(23.4156,8.8068)"
       id="g14">
      <polygon
         stroke-linejoin="round"
         stroke-linecap="round"
         stroke-width="0.08"
         fill="currentColor"
         stroke="currentColor"
         points="0.04,0.2 0.04,-0.2 1.46,-0.575 1.46,-0.175 "
         id="polygon13" />
    </g>
    <g
       transform="translate(23.4156,7.9968)"
       id="g15">
      <polygon
         stroke-linejoin="round"
         stroke-linecap="round"
         stroke-width="0.08"
         fill="currentColor"
         stroke="currentColor"
         points="0.04,0.2 0.04,-0.2 1.46,-0.575 1.46,-0.175 "
         id="polygon14" />
    </g>
  </a>
  <a
     style="color:inherit"
     xlink:href="textedit:///Users/master/Documents/GitHub/francescovitucci_dev/temp.ly:9:14:15"
     id="a16"
     transform="translate(-6.8596062,-3.8453)">
    <g
       transform="translate(26.6306,10.1243)"
       id="g16">
      <path
         transform="scale(0.004,-0.004)"
         d="m 218,136 c 66,0 108,-36 108,-89 0,-89 -113,-183 -218,-183 -66,0 -108,36 -108,89 0,89 113,183 218,183 z"
         fill="currentColor"
         id="path15" />
    </g>
  </a>
  <g
     transform="translate(21.010194,3.779)"
     id="g17">
    <rect
       x="-0.064999998"
       y="-1.125"
       width="0.13"
       height="3.4389"
       ry="0.039999999"
       fill="currentColor"
       id="rect16" />
  </g>
  <a
     style="color:inherit"
     xlink:href="textedit:///Users/master/Documents/GitHub/francescovitucci_dev/temp.ly:9:15:16"
     id="a20"
     transform="translate(-6.8596062,-3.8453)">
    <g
       transform="translate(27.1198,9.1168)"
       id="g18">
      <polygon
         stroke-linejoin="round"
         stroke-linecap="round"
         stroke-width="0.08"
         fill="currentColor"
         stroke="currentColor"
         points="0.04,0.2 0.04,-0.2 1.46,-0.575 1.46,-0.175 "
         id="polygon17" />
    </g>
    <g
       transform="translate(27.1198,8.3068)"
       id="g19">
      <polygon
         stroke-linejoin="round"
         stroke-linecap="round"
         stroke-width="0.08"
         fill="currentColor"
         stroke="currentColor"
         points="0.04,0.2 0.04,-0.2 1.46,-0.575 1.46,-0.175 "
         id="polygon18" />
    </g>
    <g
       transform="translate(27.1198,7.4968)"
       id="g20">
      <polygon
         stroke-linejoin="round"
         stroke-linecap="round"
         stroke-width="0.08"
         fill="currentColor"
         stroke="currentColor"
         points="0.04,0.2 0.04,-0.2 1.46,-0.575 1.46,-0.175 "
         id="polygon19" />
    </g>
  </a>
  <a
     style="color:inherit"
     xlink:href="textedit:///Users/master/Documents/GitHub/francescovitucci_dev/temp.ly:9:19:20"
     id="a21"
     transform="translate(-6.8596062,-3.8453)">
    <g
       transform="translate(30.3348,9.6243)"
       id="g21">
      <path
         transform="scale(0.004,-0.004)"
         d="m 218,136 c 66,0 108,-36 108,-89 0,-89 -113,-183 -218,-183 -66,0 -108,36 -108,89 0,89 113,183 218,183 z"
         fill="currentColor"
         id="path20" />
    </g>
  </a>
  <g
     transform="translate(24.714394,3.779)"
     id="g22">
    <rect
       x="-0.064999998"
       y="-2.8146999"
       width="0.13"
       height="4.6286001"
       ry="0.039999999"
       fill="currentColor"
       id="rect21" />
  </g>
  <a
     style="color:inherit"
     xlink:href="textedit:///Users/master/Documents/GitHub/francescovitucci_dev/temp.ly:9:21:22"
     id="a24"
     transform="translate(-6.8596062,-3.8453)">
    <g
       transform="translate(31.0754,6.4674)"
       id="g23">
      <polygon
         stroke-linejoin="round"
         stroke-linecap="round"
         stroke-width="0.08"
         fill="currentColor"
         stroke="currentColor"
         points="0.9724,0.1268 0.055,0.1964 0.0248,-0.2025 0.9421,-0.2721 "
         id="polygon22" />
    </g>
    <g
       transform="translate(31.0754,5.6574)"
       id="g24">
      <polygon
         stroke-linejoin="round"
         stroke-linecap="round"
         stroke-width="0.08"
         fill="currentColor"
         stroke="currentColor"
         points="0.9724,0.1268 0.055,0.1964 0.0248,-0.2025 0.9421,-0.2721 "
         id="polygon23" />
    </g>
  </a>
  <a
     style="color:inherit"
     xlink:href="textedit:///Users/master/Documents/GitHub/francescovitucci_dev/temp.ly:9:26:27"
     id="a25"
     transform="translate(-6.8596062,-3.8453)">
    <g
       transform="translate(32.839,9.1243)"
       id="g25">
      <path
         transform="scale(0.004,-0.004)"
         d="m 218,136 c 66,0 108,-36 108,-89 0,-89 -113,-183 -218,-183 -66,0 -108,36 -108,89 0,89 113,183 218,183 z"
         fill="currentColor"
         id="path24" />
    </g>
  </a>
  <g
     transform="translate(27.218594,3.779)"
     id="g26">
    <rect
       x="-0.064999998"
       y="-2.9953001"
       width="0.13"
       height="4.3091998"
       ry="0.039999999"
       fill="currentColor"
       id="rect25" />
  </g>
  <a
     style="color:inherit"
     xlink:href="textedit:///Users/master/Documents/GitHub/francescovitucci_dev/temp.ly:9:27:28"
     id="a28"
     transform="translate(-6.8596062,-3.8453)">
    <g
       transform="translate(33.5797,6.2868)"
       id="g27">
      <polygon
         stroke-linejoin="round"
         stroke-linecap="round"
         stroke-width="0.08"
         fill="currentColor"
         stroke="currentColor"
         points="0.9724,0.1268 0.055,0.1964 0.0248,-0.2025 0.9421,-0.2721 "
         id="polygon26" />
    </g>
    <g
       transform="translate(33.5797,5.4768)"
       id="g28">
      <polygon
         stroke-linejoin="round"
         stroke-linecap="round"
         stroke-width="0.08"
         fill="currentColor"
         stroke="currentColor"
         points="0.9724,0.1268 0.055,0.1964 0.0248,-0.2025 0.9421,-0.2721 "
         id="polygon27" />
    </g>
  </a>
  <a
     style="color:inherit"
     xlink:href="textedit:///Users/master/Documents/GitHub/francescovitucci_dev/temp.ly:9:32:33"
     id="a29"
     transform="translate(-6.8596062,-3.8453)">
    <g
       transform="translate(35.3432,8.6243)"
       id="g29">
      <path
         transform="scale(0.004,-0.004)"
         d="m 218,136 c 66,0 108,-36 108,-89 0,-89 -113,-183 -218,-183 -66,0 -108,36 -108,89 0,89 113,183 218,183 z"
         fill="currentColor"
         id="path28" />
    </g>
  </a>
  <g
     transform="translate(29.722794,3.779)"
     id="g30">
    <rect
       x="-0.064999998"
       y="-2.625"
       width="0.13"
       height="3.4389"
       ry="0.039999999"
       fill="currentColor"
       id="rect29" />
  </g>
  <a
     style="color:inherit"
     xlink:href="textedit:///Users/master/Documents/GitHub/francescovitucci_dev/temp.ly:9:34:35"
     id="a33"
     transform="translate(-6.8596062,-3.8453)">
    <g
       transform="translate(35.8324,7.6168)"
       id="g31">
      <polygon
         stroke-linejoin="round"
         stroke-linecap="round"
         stroke-width="0.08"
         fill="currentColor"
         stroke="currentColor"
         points="0.04,0.2 0.04,-0.2 1.46,-0.575 1.46,-0.175 "
         id="polygon30" />
    </g>
    <g
       transform="translate(35.8324,6.8068)"
       id="g32">
      <polygon
         stroke-linejoin="round"
         stroke-linecap="round"
         stroke-width="0.08"
         fill="currentColor"
         stroke="currentColor"
         points="0.04,0.2 0.04,-0.2 1.46,-0.575 1.46,-0.175 "
         id="polygon31" />
    </g>
    <g
       transform="translate(35.8324,5.9968)"
       id="g33">
      <polygon
         stroke-linejoin="round"
         stroke-linecap="round"
         stroke-width="0.08"
         fill="currentColor"
         stroke="currentColor"
         points="0.04,0.2 0.04,-0.2 1.46,-0.575 1.46,-0.175 "
         id="polygon32" />
    </g>
  </a>
  <g
     transform="translate(-0.13750625,4.5251)"
     id="g34">
    <text
       font-family="serif"
       font-size="2.2001px"
       text-anchor="start"
       fill="currentColor"
       id="text33"><tspan
         id="tspan33">Staff 1</tspan></text>
  </g>
</svg>
