<?xml version="1.0" encoding="UTF-8" standalone="no"?>
<svg
   version="1.2"
   width="60.38588mm"
   height="14.455276mm"
   viewBox="0 0 34.362901 8.22585"
   id="svg23"
   sodipodi:docname="index.html-20241126_161718_790705-0.svg"
   xmlns:inkscape="http://www.inkscape.org/namespaces/inkscape"
   xmlns:sodipodi="http://sodipodi.sourceforge.net/DTD/sodipodi-0.dtd"
   xmlns:xlink="http://www.w3.org/1999/xlink"
   xmlns="http://www.w3.org/2000/svg"
   xmlns:svg="http://www.w3.org/2000/svg">
  <defs
     id="defs23" />
  <sodipodi:namedview
     id="namedview23"
     pagecolor="#505050"
     bordercolor="#eeeeee"
     borderopacity="1"
     inkscape:showpageshadow="0"
     inkscape:pageopacity="0"
     inkscape:pagecheckerboard="0"
     inkscape:deskcolor="#505050"
     inkscape:document-units="mm" />
  <style
     type="text/css"
     id="style1"><![CDATA[
tspan { white-space: pre; }
]]></style>
  <g
     transform="translate(-8.5358,6.779)"
     id="g1">
    <rect
       x="36.1581"
       y="-0.1"
       width="2.9430001"
       height="0.2"
       ry="0.1"
       fill="currentColor"
       id="rect1" />
  </g>
  <g
     transform="translate(-8.5358,6.779)"
     id="g2">
    <rect
       x="29.796"
       y="-0.1"
       width="2.066"
       height="0.2"
       ry="0.1"
       fill="currentColor"
       id="rect2" />
  </g>
  <g
     transform="translate(-8.5358,6.779)"
     id="g3">
    <rect
       x="24.059799"
       y="-0.1"
       width="1.9563"
       height="0.2"
       ry="0.1"
       fill="currentColor"
       id="rect3" />
  </g>
  <g
     transform="translate(-8.5358,6.779)"
     id="g4">
    <rect
       x="16.7453"
       y="-0.1"
       width="2.9430001"
       height="0.2"
       ry="0.1"
       fill="currentColor"
       id="rect4" />
  </g>
  <g
     transform="translate(0,5.779)"
     id="g5">
    <line
       stroke-linejoin="round"
       stroke-linecap="round"
       stroke-width="0.1"
       stroke="currentColor"
       x1="0.050000001"
       y1="0"
       x2="34.312901"
       y2="0"
       id="line4" />
  </g>
  <g
     transform="translate(0,4.779)"
     id="g6">
    <line
       stroke-linejoin="round"
       stroke-linecap="round"
       stroke-width="0.1"
       stroke="currentColor"
       x1="0.050000001"
       y1="0"
       x2="34.312901"
       y2="0"
       id="line5" />
  </g>
  <g
     transform="translate(0,3.779)"
     id="g7">
    <line
       stroke-linejoin="round"
       stroke-linecap="round"
       stroke-width="0.1"
       stroke="currentColor"
       x1="0.050000001"
       y1="0"
       x2="34.312901"
       y2="0"
       id="line6" />
  </g>
  <g
     transform="translate(0,2.779)"
     id="g8">
    <line
       stroke-linejoin="round"
       stroke-linecap="round"
       stroke-width="0.1"
       stroke="currentColor"
       x1="0.050000001"
       y1="0"
       x2="34.312901"
       y2="0"
       id="line7" />
  </g>
  <g
     transform="translate(0,1.779)"
     id="g9">
    <line
       stroke-linejoin="round"
       stroke-linecap="round"
       stroke-width="0.1"
       stroke="currentColor"
       x1="0.050000001"
       y1="0"
       x2="34.312901"
       y2="0"
       id="line8" />
  </g>
  <g
     transform="translate(34.1728,3.779)"
     id="g10">
    <rect
       x="0"
       y="-2"
       width="0.19"
       height="4"
       ry="0.0000"
       fill="currentColor"
       id="rect9" />
  </g>
  <g
     transform="translate(26.0228,3.779)"
     id="g11">
    <rect
       x="0"
       y="-2"
       width="0.19"
       height="4"
       ry="0.0000"
       fill="currentColor"
       id="rect10" />
  </g>
  <g
     transform="translate(14.76,3.779)"
     id="g12">
    <rect
       x="0"
       y="-2"
       width="0.19"
       height="4"
       ry="0.0000"
       fill="currentColor"
       id="rect11" />
  </g>
  <a
     style="color:inherit"
     xlink:href="textedit:///Users/master/Documents/GitHub/francescovitucci_dev/temp.ly:6:6:7"
     id="a13"
     transform="translate(-14.2264,-3.8453)">
    <g
       transform="translate(22.9264,7.6243)"
       id="g13">
      <path
         stroke-width="0.08"
         stroke-linejoin="round"
         stroke-linecap="round"
         stroke="currentColor"
         fill="currentColor"
         d="m 1.181,3.75 c 1.0175,0.8758 5.4036,0.8758 6.4212,0 v 0 C 6.5846,4.5058 2.1985,4.5058 1.181,3.75 Z"
         id="path12" />
    </g>
  </a>
  <a
     style="color:inherit"
     xlink:href="textedit:///Users/master/Documents/GitHub/francescovitucci_dev/temp.ly:6:4:5"
     id="a14"
     transform="translate(-14.2264,-3.8453)">
    <g
       transform="translate(22.9264,10.6243)"
       id="g14">
      <path
         transform="scale(0.004,-0.004)"
         d="m 213,112 c -45,0 -69,-34 -69,-88 0,-102 89,-136 134,-136 45,0 69,34 69,88 0,102 -89,136 -134,136 z m 32,24 C 389,136 491,71 491,0 491,-71 389,-136 245,-136 101,-136 0,-71 0,0 0,71 101,136 245,136 Z"
         fill="currentColor"
         id="path13" />
    </g>
  </a>
  <g
     transform="translate(0.8,4.779)"
     id="g15">
    <path
       transform="scale(0.004,-0.004)"
       d="m 266,-635 h -6 c -108,0 -195,88 -195,197 0,58 53,103 112,103 54,0 95,-47 95,-103 0,-52 -43,-95 -95,-95 -11,0 -21,2 -31,6 26,-39 68,-65 117,-65 h 4 z m 195,432 c 68,24 113,90 113,164 0,90 -66,179 -173,190 19,-89 48,-242 60,-354 z M 74,28 c 0,-145 141,-247 264,-247 1,0 47,0 82,6 -7,64 -29,203 -63,364 -79,-8 -124,-61 -124,-119 0,-44 25,-91 81,-123 5,-5 7,-10 7,-15 0,-11 -10,-22 -22,-22 -15,0 -126,62 -126,187 0,88 58,174 160,197 -14,58 -29,117 -46,175 C 180,310 74,188 74,28 Z m 176,525 c -29,96 -52,170 -52,346 0,115 55,224 149,292 6,5 14,5 20,0 68,-80 133,-245 133,-358 0,-143 -86,-255 -180,-364 21,-68 39,-138 56,-207 2,0 7,1 13,1 155,0 256,-128 256,-261 0,-113 -74,-212 -180,-246 3,-35 5,-70 5,-105 0,-19 -1,-39 -2,-58 -7,-119 -88,-225 -202,-228 l 1,43 c 93,2 153,92 159,191 1,18 2,37 2,55 0,31 -1,61 -4,92 -5,-1 -44,-8 -89,-8 C 142,-262 2,-82 2,112 2,289 133,418 250,553 Z m 178,363 c 0,34 1,66 -20,129 -99,-48 -162,-149 -162,-259 0,-52 12,-115 36,-194 80,97 146,198 146,324 z"
       fill="currentColor"
       id="path14" />
  </g>
  <g
     transform="translate(5,3.779)"
     id="g16">
    <path
       transform="scale(0.004,-0.004)"
       d="m 250,262 c 116,0 176,-106 176,-163 0,-40 -30,-72 -67,-72 -31,0 -75,25 -75,75 0,38 27,77 72,77 4,0 9,0 14,-1 -28,37 -72,59 -120,59 C 144,237 137,164 137,51 V 0 -51 c 0,-113 7,-187 113,-187 80,0 139,70 158,151 2,7 7,10 12,10 6,0 13,-4 13,-12 0,-22 -50,-174 -183,-174 C 191,-263 0,-244 0,0 0,62 18,262 250,262 Z"
       fill="currentColor"
       id="path15" />
  </g>
  <a
     style="color:inherit"
     xlink:href="textedit:///Users/master/Documents/GitHub/francescovitucci_dev/temp.ly:7:4:5"
     id="a17"
     transform="translate(-14.2264,-3.8453)">
    <g
       transform="translate(30.0764,10.6243)"
       id="g17">
      <path
         transform="scale(0.004,-0.004)"
         d="m 218,136 c 66,0 108,-36 108,-89 0,-89 -113,-183 -218,-183 -66,0 -108,36 -108,89 0,89 113,183 218,183 z"
         fill="currentColor"
         id="path16" />
    </g>
  </a>
  <g
     transform="translate(17.0892,3.779)"
     id="g18">
    <rect
       x="-0.064999998"
       y="-0.5"
       width="0.13"
       height="3.3139"
       ry="0.039999999"
       fill="currentColor"
       id="rect17" />
  </g>
  <a
     style="color:inherit"
     xlink:href="textedit:///Users/master/Documents/GitHub/francescovitucci_dev/temp.ly:7:7:8"
     id="a19"
     transform="translate(-14.2264,-3.8453)">
    <g
       transform="translate(33.0787,10.1243)"
       id="g19">
      <path
         transform="scale(0.004,-0.004)"
         d="m 218,136 c 66,0 108,-36 108,-89 0,-89 -113,-183 -218,-183 -66,0 -108,36 -108,89 0,89 113,183 218,183 z"
         fill="currentColor"
         id="path18" />
    </g>
  </a>
  <g
     transform="translate(20.0915,3.779)"
     id="g20">
    <rect
       x="-0.064999998"
       y="-1"
       width="0.13"
       height="3.3139"
       ry="0.039999999"
       fill="currentColor"
       id="rect19" />
  </g>
  <a
     style="color:inherit"
     xlink:href="textedit:///Users/master/Documents/GitHub/francescovitucci_dev/temp.ly:7:9:10"
     id="a21"
     transform="translate(-14.2264,-3.8453)">
    <g
       transform="translate(35.8309,11.1243)"
       id="g21">
      <path
         transform="scale(0.004,-0.004)"
         d="m 314,65 c 0,23 -19,41 -42,41 C 233,106 68,-4 41,-37 34,-45 31,-55 31,-65 c 0,-23 19,-41 42,-41 39,0 203,110 230,143 7,8 11,18 11,28 z m -52,71 c 41,0 82,-14 82,-71 0,-26 -16,-112 -74,-151 -25,-17 -87,-50 -187,-50 -41,0 -83,14 -83,71 0,26 16,112 74,151 25,17 88,50 188,50 z"
         fill="currentColor"
         id="path20" />
    </g>
  </a>
  <g
     transform="translate(22.9169,3.779)"
     id="g22">
    <rect
       x="-0.064999998"
       y="0"
       width="0.13"
       height="3.2409999"
       ry="0.039999999"
       fill="currentColor"
       id="rect21" />
  </g>
  <a
     style="color:inherit"
     xlink:href="textedit:///Users/master/Documents/GitHub/francescovitucci_dev/temp.ly:8:4:5"
     id="a23"
     transform="translate(-14.2264,-3.8453)">
    <g
       transform="translate(42.3392,10.6243)"
       id="g23">
      <path
         transform="scale(0.004,-0.004)"
         d="m 213,112 c -45,0 -69,-34 -69,-88 0,-102 89,-136 134,-136 45,0 69,34 69,88 0,102 -89,136 -134,136 z m 32,24 C 389,136 491,71 491,0 491,-71 389,-136 245,-136 101,-136 0,-71 0,0 0,71 101,136 245,136 Z"
         fill="currentColor"
         id="path22" />
    </g>
  </a>
</svg>
