<?xml version="1.0" encoding="UTF-8" standalone="no"?>
<svg
   version="1.2"
   width="37.141739mm"
   height="12.868698mm"
   viewBox="0 0 21.135701 7.3229998"
   id="svg17"
   sodipodi:docname="index.html-20241108_092257_346876-0.svg"
   xmlns:inkscape="http://www.inkscape.org/namespaces/inkscape"
   xmlns:sodipodi="http://sodipodi.sourceforge.net/DTD/sodipodi-0.dtd"
   xmlns:xlink="http://www.w3.org/1999/xlink"
   xmlns="http://www.w3.org/2000/svg"
   xmlns:svg="http://www.w3.org/2000/svg">
  <defs
     id="defs17" />
  <sodipodi:namedview
     id="namedview17"
     pagecolor="#ffffff"
     bordercolor="#000000"
     borderopacity="0.25"
     inkscape:showpageshadow="2"
     inkscape:pageopacity="0.0"
     inkscape:pagecheckerboard="0"
     inkscape:deskcolor="#d1d1d1"
     inkscape:document-units="mm" />
  <style
     type="text/css"
     id="style1"><![CDATA[
tspan { white-space: pre; }
]]></style>
  <g
     transform="translate(-8.5358,6.779)"
     id="g1">
    <rect
       x="16.9098"
       y="-0.1"
       width="1.9563"
       height="0.2"
       ry="0.1"
       fill="currentColor"
       id="rect1" />
  </g>
  <g
     transform="translate(0,5.779)"
     id="g2">
    <line
       stroke-linejoin="round"
       stroke-linecap="round"
       stroke-width="0.1"
       stroke="currentColor"
       x1="0.050000001"
       y1="0"
       x2="21.085699"
       y2="0"
       id="line1" />
  </g>
  <g
     transform="translate(0,4.779)"
     id="g3">
    <line
       stroke-linejoin="round"
       stroke-linecap="round"
       stroke-width="0.1"
       stroke="currentColor"
       x1="0.050000001"
       y1="0"
       x2="21.085699"
       y2="0"
       id="line2" />
  </g>
  <g
     transform="translate(0,3.779)"
     id="g4">
    <line
       stroke-linejoin="round"
       stroke-linecap="round"
       stroke-width="0.1"
       stroke="currentColor"
       x1="0.050000001"
       y1="0"
       x2="21.085699"
       y2="0"
       id="line3" />
  </g>
  <g
     transform="translate(0,2.779)"
     id="g5">
    <line
       stroke-linejoin="round"
       stroke-linecap="round"
       stroke-width="0.1"
       stroke="currentColor"
       x1="0.050000001"
       y1="0"
       x2="21.085699"
       y2="0"
       id="line4" />
  </g>
  <g
     transform="translate(0,1.779)"
     id="g6">
    <line
       stroke-linejoin="round"
       stroke-linecap="round"
       stroke-width="0.1"
       stroke="currentColor"
       x1="0.050000001"
       y1="0"
       x2="21.085699"
       y2="0"
       id="line5" />
  </g>
  <g
     transform="translate(20.9457,3.779)"
     id="g7">
    <rect
       x="0"
       y="-2"
       width="0.19"
       height="4"
       ry="0.0000"
       fill="currentColor"
       id="rect6" />
  </g>
  <a
     style="color:inherit"
     xlink:href="textedit:///Users/master/Documents/GitHub/francescovitucci_dev/temp.ly:6:4:5"
     id="a8"
     transform="translate(-14.2264,-3.8453)">
    <g
       transform="translate(22.9264,10.6243)"
       id="g8">
      <path
         transform="scale(0.004,-0.004)"
         d="m 218,136 c 66,0 108,-36 108,-89 0,-89 -113,-183 -218,-183 -66,0 -108,36 -108,89 0,89 113,183 218,183 z"
         fill="currentColor"
         id="path7" />
    </g>
  </a>
  <g
     transform="translate(0.8,4.779)"
     id="g9">
    <path
       transform="scale(0.004,-0.004)"
       d="m 266,-635 h -6 c -108,0 -195,88 -195,197 0,58 53,103 112,103 54,0 95,-47 95,-103 0,-52 -43,-95 -95,-95 -11,0 -21,2 -31,6 26,-39 68,-65 117,-65 h 4 z m 195,432 c 68,24 113,90 113,164 0,90 -66,179 -173,190 19,-89 48,-242 60,-354 z M 74,28 c 0,-145 141,-247 264,-247 1,0 47,0 82,6 -7,64 -29,203 -63,364 -79,-8 -124,-61 -124,-119 0,-44 25,-91 81,-123 5,-5 7,-10 7,-15 0,-11 -10,-22 -22,-22 -15,0 -126,62 -126,187 0,88 58,174 160,197 -14,58 -29,117 -46,175 C 180,310 74,188 74,28 Z m 176,525 c -29,96 -52,170 -52,346 0,115 55,224 149,292 6,5 14,5 20,0 68,-80 133,-245 133,-358 0,-143 -86,-255 -180,-364 21,-68 39,-138 56,-207 2,0 7,1 13,1 155,0 256,-128 256,-261 0,-113 -74,-212 -180,-246 3,-35 5,-70 5,-105 0,-19 -1,-39 -2,-58 -7,-119 -88,-225 -202,-228 l 1,43 c 93,2 153,92 159,191 1,18 2,37 2,55 0,31 -1,61 -4,92 -5,-1 -44,-8 -89,-8 C 142,-262 2,-82 2,112 2,289 133,418 250,553 Z m 178,363 c 0,34 1,66 -20,129 -99,-48 -162,-149 -162,-259 0,-52 12,-115 36,-194 80,97 146,198 146,324 z"
       fill="currentColor"
       id="path8" />
  </g>
  <g
     transform="translate(5,3.779)"
     id="g10">
    <path
       transform="scale(0.004,-0.004)"
       d="m 250,262 c 116,0 176,-106 176,-163 0,-40 -30,-72 -67,-72 -31,0 -75,25 -75,75 0,38 27,77 72,77 4,0 9,0 14,-1 -28,37 -72,59 -120,59 C 144,237 137,164 137,51 V 0 -51 c 0,-113 7,-187 113,-187 80,0 139,70 158,151 2,7 7,10 12,10 6,0 13,-4 13,-12 0,-22 -50,-174 -183,-174 C 191,-263 0,-244 0,0 0,62 18,262 250,262 Z"
       fill="currentColor"
       id="path9" />
  </g>
  <g
     transform="translate(9.9392,3.779)"
     id="g11">
    <rect
       x="-0.064999998"
       y="-0.5"
       width="0.13"
       height="3.3139"
       ry="0.039999999"
       fill="currentColor"
       id="rect10" />
  </g>
  <a
     style="color:inherit"
     xlink:href="textedit:///Users/master/Documents/GitHub/francescovitucci_dev/temp.ly:6:7:8"
     id="a12"
     transform="translate(-14.2264,-3.8453)">
    <g
       transform="translate(25.9286,10.1243)"
       id="g12">
      <path
         transform="scale(0.004,-0.004)"
         d="m 218,136 c 66,0 108,-36 108,-89 0,-89 -113,-183 -218,-183 -66,0 -108,36 -108,89 0,89 113,183 218,183 z"
         fill="currentColor"
         id="path11" />
    </g>
  </a>
  <g
     transform="translate(12.9414,3.779)"
     id="g13">
    <rect
       x="-0.064999998"
       y="-1"
       width="0.13"
       height="3.3139"
       ry="0.039999999"
       fill="currentColor"
       id="rect12" />
  </g>
  <a
     style="color:inherit"
     xlink:href="textedit:///Users/master/Documents/GitHub/francescovitucci_dev/temp.ly:6:9:10"
     id="a14"
     transform="translate(-14.2264,-3.8453)">
    <g
       transform="translate(28.9309,9.6243)"
       id="g14">
      <path
         transform="scale(0.004,-0.004)"
         d="m 218,136 c 66,0 108,-36 108,-89 0,-89 -113,-183 -218,-183 -66,0 -108,36 -108,89 0,89 113,183 218,183 z"
         fill="currentColor"
         id="path13" />
    </g>
  </a>
  <g
     transform="translate(15.9437,3.779)"
     id="g15">
    <rect
       x="-0.064999998"
       y="-1.5"
       width="0.13"
       height="3.3139"
       ry="0.039999999"
       fill="currentColor"
       id="rect14" />
  </g>
  <a
     style="color:inherit"
     xlink:href="textedit:///Users/master/Documents/GitHub/francescovitucci_dev/temp.ly:6:11:12"
     id="a16"
     transform="translate(-14.2264,-3.8453)">
    <g
       transform="translate(31.9331,9.1243)"
       id="g16">
      <path
         transform="scale(0.004,-0.004)"
         d="m 218,136 c 66,0 108,-36 108,-89 0,-89 -113,-183 -218,-183 -66,0 -108,36 -108,89 0,89 113,183 218,183 z"
         fill="currentColor"
         id="path15" />
    </g>
  </a>
  <g
     transform="translate(18.946,3.779)"
     id="g17">
    <rect
       x="-0.064999998"
       y="-2"
       width="0.13"
       height="3.3139"
       ry="0.039999999"
       fill="currentColor"
       id="rect16" />
  </g>
</svg>
